<?xml version="1.0" standalone="no"?>
<!DOCTYPE svg PUBLIC "-//W3C//DTD SVG 20010904//EN"
 "http://www.w3.org/TR/2001/REC-SVG-20010904/DTD/svg10.dtd">
<svg version="1.0" xmlns="http://www.w3.org/2000/svg"
 width="1280.000000pt" height="983.000000pt" viewBox="0 0 1280.000000 983.000000"
 preserveAspectRatio="xMidYMid meet">
<g transform="translate(0.000000,983.000000) scale(0.100000,-0.100000)"
fill="#000000" stroke="none">
<path d="M3710 8924 c-157 -10 -318 -27 -432 -44 -519 -79 -973 -270 -1343
-567 -127 -101 -329 -309 -423 -435 -147 -196 -294 -461 -387 -698 -64 -162
-58 -278 17 -334 16 -11 124 -45 250 -78 353 -92 1560 -368 1612 -368 56 0
104 21 129 55 9 13 41 78 71 145 124 277 288 474 496 596 177 104 310 139 514
132 157 -5 175 -12 239 -98 139 -185 138 -458 -2 -670 -68 -102 -211 -266
-447 -510 -468 -485 -632 -693 -774 -985 -184 -378 -253 -668 -254 -1070 -1
-189 -1 -190 27 -247 16 -32 45 -71 65 -88 72 -59 78 -60 719 -60 l584 0 162
41 c174 43 228 68 275 125 38 45 49 92 57 224 18 305 114 543 321 791 87 104
389 378 689 623 176 143 370 323 455 421 132 151 264 367 326 532 88 233 115
550 68 797 -36 188 -131 406 -247 568 -99 137 -348 420 -449 508 -430 378
-1038 618 -1718 680 -124 11 -510 20 -600 14z"/>
<path d="M9855 4725 c-85 -19 -170 -50 -231 -85 -70 -39 -3804 -2428 -3826
-2448 -14 -11 -15 -18 -7 -29 9 -10 89 -13 419 -13 560 0 600 8 975 197 196
98 2930 1489 4115 2094 293 149 525 273 525 281 0 20 -1883 23 -1970 3z"/>
<path d="M2976 2855 c-110 -35 -210 -72 -224 -82 -14 -11 -35 -37 -46 -59 -21
-38 -21 -51 -24 -959 l-3 -920 23 -83 23 -83 50 -17 c45 -15 132 -17 925 -20
905 -3 947 -2 1035 38 22 9 81 55 130 100 50 45 115 101 145 124 31 22 342
203 693 401 350 198 637 365 637 371 0 7 -7 15 -16 18 -9 3 -281 6 -605 6
-324 0 -590 1 -591 3 -1 1 -5 250 -8 552 -5 531 -6 551 -26 589 -11 22 -33 49
-48 60 -27 21 -36 21 -949 23 l-922 2 -199 -64z"/>
</g>
</svg>
